<svg xmlns="http://www.w3.org/2000/svg" width="37.596" height="37.596" viewBox="0 0 37.596 37.596">
  <path id="icons8-facebook" d="M36.419,3H7.177A4.176,4.176,0,0,0,3,7.177V36.419A4.176,4.176,0,0,0,7.177,40.6H23.095V26.057H18.2V20.365h4.894V16.177c0-4.854,2.968-7.5,7.3-7.5a41.811,41.811,0,0,1,4.369.219v5.075H31.782c-2.36,0-2.82,1.115-2.82,2.761v3.624H34.6l-.733,5.692h-4.94V40.6h7.49A4.176,4.176,0,0,0,40.6,36.419V7.177A4.176,4.176,0,0,0,36.419,3Z" transform="translate(-3 -3)" fill="#fff"/>
</svg>
