<svg id="baseline-share-24px_1_" data-name="baseline-share-24px (1)" xmlns="http://www.w3.org/2000/svg" width="38.172" height="38.172" viewBox="0 0 38.172 38.172">
  <path id="Path_780" data-name="Path 780" d="M0,0H38.172V38.172H0Z" fill="none"/>
  <path id="Path_781" data-name="Path 781" d="M26.858,24.394a4.632,4.632,0,0,0-3.117,1.225l-11.34-6.6a5.207,5.207,0,0,0,.143-1.113,5.207,5.207,0,0,0-.143-1.113l11.213-6.537a4.761,4.761,0,1,0-1.527-3.483,5.207,5.207,0,0,0,.143,1.113L11.016,14.422a4.772,4.772,0,1,0,0,6.966L22.341,28a4.487,4.487,0,0,0-.127,1.034,4.644,4.644,0,1,0,4.644-4.644Z" transform="translate(1.772 1.181)" fill="#2495e4"/>
</svg>
