<svg xmlns="http://www.w3.org/2000/svg" width="25" height="25" viewBox="0 0 25 25">
  <g id="Symbol_98_1" data-name="Symbol 98 – 1" transform="translate(-64 -455.5)">
    <g id="ic_search_" data-name="ic_search " transform="translate(64 455.5)">
      <rect id="square" width="25" height="25" transform="translate(0 0)" fill="none"/>
      <path id="path" d="M47.614,62.329h-.846l-.317-.317a6.617,6.617,0,0,0,1.691-4.44,6.871,6.871,0,1,0-6.871,6.871,6.617,6.617,0,0,0,4.44-1.691l.317.317v.846L51.314,69.2,52.9,67.614Zm-6.343,0a4.757,4.757,0,1,1,4.757-4.757A4.737,4.737,0,0,1,41.271,62.329Z" transform="translate(-31.4 -47.7)" fill="#2495e4"/>
    </g>
  </g>
</svg>
