<svg xmlns="http://www.w3.org/2000/svg" width="68" height="68.002" viewBox="0 0 68 68.002">
  <path id="icons8-twitter" d="M63.444,3H10.556A7.554,7.554,0,0,0,3,10.556v52.89A7.554,7.554,0,0,0,10.556,71H63.444A7.554,7.554,0,0,0,71,63.446V10.556A7.554,7.554,0,0,0,63.444,3ZM56.078,27.609v1.3c0,12.3-9.392,26.555-26.554,26.555a27.194,27.194,0,0,1-14.246-4.209h2.267A20.943,20.943,0,0,0,29.2,47.364a9.443,9.443,0,0,1-8.742-6.475,14.147,14.147,0,0,1,1.621.325,7.113,7.113,0,0,0,2.592-.325,9.356,9.356,0,0,1-7.446-9.067,16.157,16.157,0,0,0,4.208,1.3c-2.592-2.267-4.208-4.858-4.208-8.1a7.437,7.437,0,0,1,1.3-4.533,26.283,26.283,0,0,0,19.1,9.713c0-.646-.325-1.3-.325-2.267a9.4,9.4,0,0,1,9.392-9.392,8.822,8.822,0,0,1,6.8,2.913,15.72,15.72,0,0,0,5.829-2.267,9.466,9.466,0,0,1-4.208,5.179,17.713,17.713,0,0,0,5.5-1.621A21.868,21.868,0,0,1,56.078,27.609Z" transform="translate(-3 -3)" fill="#2495e4"/>
</svg>
