<svg xmlns="http://www.w3.org/2000/svg" width="38.154" height="38.154" viewBox="0 0 38.154 38.154">
  <path id="icons8-pinterest" d="M21.077,2a19.077,19.077,0,0,0-6.952,36.842,18.254,18.254,0,0,1,.067-5.471c.347-1.488,2.236-9.483,2.236-9.483a6.887,6.887,0,0,1-.57-2.831c0-2.654,1.538-4.632,3.451-4.632a2.4,2.4,0,0,1,2.413,2.686c0,1.637-1.042,4.084-1.58,6.351a2.769,2.769,0,0,0,2.825,3.447c3.39,0,6-3.575,6-8.735,0-4.567-3.281-7.761-7.969-7.761a8.257,8.257,0,0,0-8.613,8.279A7.424,7.424,0,0,0,13.8,25.045a.571.571,0,0,1,.132.548c-.145.6-.465,1.9-.528,2.163-.082.349-.277.424-.637.254-2.383-1.11-3.873-4.594-3.873-7.39C8.894,14.6,13.267,9.074,21.5,9.074c6.618,0,11.761,4.716,11.761,11.019,0,6.576-4.145,11.866-9.9,11.866a5.11,5.11,0,0,1-4.372-2.19s-.958,3.642-1.189,4.537a21.334,21.334,0,0,1-2.371,5A19.08,19.08,0,1,0,21.077,2Z" transform="translate(-2 -2)" fill="#fff"/>
</svg>
