<svg xmlns="http://www.w3.org/2000/svg" width="36.006" height="36.005" viewBox="0 0 36.006 36.005">
  <path id="icons8-twitter" d="M35,3H7A4,4,0,0,0,3,7V35a4,4,0,0,0,4,4H35a4,4,0,0,0,4-4V7A4,4,0,0,0,35,3ZM31.1,16.03v.686a13.975,13.975,0,0,1-14.06,14.06A14.4,14.4,0,0,1,9.5,28.548h1.2a11.09,11.09,0,0,0,6.173-2.058,5,5,0,0,1-4.629-3.429,7.491,7.491,0,0,1,.858.172,3.767,3.767,0,0,0,1.372-.172,4.954,4.954,0,0,1-3.943-4.8,8.555,8.555,0,0,0,2.228.686,5.618,5.618,0,0,1-2.228-4.287,3.937,3.937,0,0,1,.686-2.4A13.917,13.917,0,0,0,21.335,17.4c0-.342-.172-.686-.172-1.2a4.977,4.977,0,0,1,4.973-4.973,4.671,4.671,0,0,1,3.6,1.542,8.324,8.324,0,0,0,3.086-1.2,5.012,5.012,0,0,1-2.228,2.742,9.379,9.379,0,0,0,2.914-.858A11.579,11.579,0,0,1,31.1,16.03Z" transform="translate(-3 -3)" fill="#fff"/>
</svg>
