<svg xmlns="http://www.w3.org/2000/svg" width="34.393" height="38.073" viewBox="0 0 34.393 38.073">
  <path id="icons8-linkedin" d="M33.571,3H6.821A4.04,4.04,0,0,0,3,7.23V36.842a4.04,4.04,0,0,0,3.821,4.23h26.75a4.04,4.04,0,0,0,3.821-4.23V7.23A4.04,4.04,0,0,0,33.571,3ZM14.464,32.612H9.644V17.806h4.821Zm-2.5-17.52a2.4,2.4,0,0,1-2.457-2.538,2.44,2.44,0,0,1,2.62-2.538,2.4,2.4,0,0,1,2.457,2.538A2.44,2.44,0,0,1,11.969,15.092Zm19.692,17.52H26.995V24.52c0-2.238-1.244-2.754-1.71-2.754s-2.022.345-2.022,2.754v8.093H18.442V17.806h4.821v2.067c.621-1.206,1.865-2.067,4.2-2.067s4.2,2.067,4.2,6.713Z" transform="translate(-3 -3)" fill="#fff"/>
</svg>
