<svg xmlns="http://www.w3.org/2000/svg" width="36.52" height="36.52" viewBox="0 0 36.52 36.52">
  <path id="icons8-instagram" d="M13.144,3A10.146,10.146,0,0,0,3,13.144V29.376A10.146,10.146,0,0,0,13.144,39.52H29.376A10.146,10.146,0,0,0,39.52,29.376V13.144A10.146,10.146,0,0,0,29.376,3ZM33.433,7.058A2.029,2.029,0,1,1,31.4,9.087,2.03,2.03,0,0,1,33.433,7.058ZM21.26,11.116A10.144,10.144,0,1,1,11.116,21.26,10.146,10.146,0,0,1,21.26,11.116Zm0,4.058a6.087,6.087,0,1,0,6.087,6.087,6.087,6.087,0,0,0-6.087-6.087Z" transform="translate(-3 -3)" fill="#fff"/>
</svg>
