<svg id="icons8-vimeo" xmlns="http://www.w3.org/2000/svg" width="34.598" height="29.329" viewBox="0 0 34.598 29.329">
  <path id="Path_777" data-name="Path 777" d="M36.581,10.832q-.223,4.957-7.055,13.557-7.055,8.991-11.941,8.988-3.021,0-5.116-5.474-1.4-5.018-2.791-10.035-1.551-5.474-3.332-5.474a10.641,10.641,0,0,0-2.717,1.595L2,11.933q2.565-2.2,5.048-4.406,3.416-2.9,5.129-3.048,4.035-.385,4.974,5.413,1,6.244,1.392,7.772,1.166,5.18,2.568,5.177c.723,0,1.811-1.115,3.264-3.359S26.6,15.535,26.7,14.359c.21-1.933-.568-2.906-2.325-2.906a6.55,6.55,0,0,0-2.561.561q2.544-8.191,9.745-7.961Q36.891,4.205,36.581,10.832Z" transform="translate(-2 -4.047)" fill="#fff"/>
</svg>
