<?xml version="1.0" encoding="utf-8"?>
<!-- Generator: Adobe Illustrator 22.1.0, SVG Export Plug-In . SVG Version: 6.00 Build 0)  -->
<svg version="1.1" id="Layer_1" xmlns="http://www.w3.org/2000/svg" xmlns:xlink="http://www.w3.org/1999/xlink" x="0px" y="0px"
	 viewBox="0 0 604.4 278" style="enable-background:new 0 0 604.4 278;" xml:space="preserve">
<style type="text/css">
	.st0{fill:#2495E4;}
	.st1{fill:#FEE932;}
	.st2{font-family:'Muli-Bold';}
	.st3{font-size:33px;}
</style>
<g>
	<g id="Artboard_1">
		<g id="Group_932" transform="translate(-19 158)">
			<g id="logo" transform="translate(50 37)">
				<g id="Layer_1_1_" transform="translate(0 0.07)">
					<path id="Path_89" class="st0" d="M525.3-31.5c0-2.1-1.4-3.9-3.3-4.6c-2.3-0.9-3.7,0.9-4.8,2.6c-1.3,2.1-2.5,4.1-3.7,6.2
						c-4.2,6.9-8.8,13.5-15.3,18.4c-3.2,2.4-6.8,4-10.6,1.9c-3.6-1.9-3.2-5.7-3.2-9.1c0.1-1,0.2-2,0.4-2.9c1.6-8.5,4-16.9,4.6-25.4
						c1.1-17.3-4.6-28.2-26-24.7c-8.5,1.4-15.4,6.2-22.3,11c-0.2-0.7-0.5-1.2-0.4-1.4c11.2-15.8,24-29.2,44.9-31
						c6.6-0.6,8.2-2.6,7.3-9.3c-1.7-13.1-11.9-18.7-24.8-13.3c-10.3,4.2-18.1,11.7-25.2,20.1c-6.9,8.1-12.8,17-19.2,25.6
						c0.4-1.9,0.8-3.9,1.2-5.8c8.1-36.1,18.3-71.4,38.2-103.2c2.7-4.3,1.7-7.5-1.8-10.5c-2.4-1.8-5.1-3.2-8-4
						c-13.6-4.5-26.7-1.3-39.4,3c-33.3,11.1-52.9,36.3-67.1,66.7c-2,4.1-3.7,5.5-8.3,5.1c-14.6-1.5-29.2,2.9-40.5,12.3
						c-20.9,16.9-30.2,39.9-31,66c-0.3,11.1-5,18.6-11.9,25.6c-3.8,3.9-8.3,8.1-14.2,5.4c-5.6-2.5-5.6-8.4-5.6-13.7
						c0.6-27.5,9.3-52.7,21.7-76.8c3.3-6.3,2.3-10.6-4-13.8c-8.8-4.4-18.2-4.8-27.6-3.3c-4.7,0.6-8.7,3.8-10.2,8.3
						c-9.3,22.4-15.4,46.1-18.2,70.2c-1.4,12.9-9.2,21.1-18.7,28.1c-5.6,4.1-10.9,1.7-13.2-4.9c-2.1-6.3-2.2-12.9-1.7-19.6
						c1.7-21.7,7.1-42.8,13.2-63.6c8.2-28,16.8-56,30.3-82.1c2.4-4.6,0.9-8.8-4.2-11.6c-7.5-4-15.6-4.9-24-4.4
						c-8.1,0.5-13,4.1-16,12c-16.3,42.8-29.1,86.6-35.2,132.2c-0.8,5.9,0.2,12.1-3.2,17.6c-5,8.3-11.3,15.7-18.6,22.1
						C89.9,3.2,72,9.9,51.5,4.5c-22.9-6-33.9-23.3-37.2-45.1c-6-38.9,4.4-74,27.9-105.2c6.8-9,15.5-16.3,26.6-20
						c10.2-3.4,15.2-0.2,15,10.6c-0.2,10.4-3.3,20.1-8,29.4c-2.8,5.5-2.1,8.6,3.5,11.2c10.6,4.8,20.9,4.1,30-3.2
						c12.1-9.7,15.9-23.2,14-37.8c-2.8-21.6-21.2-37.1-44.1-39.1c-29-2.5-52.5,9.1-71,30.2c-30.6,34.8-42.3,76.4-38.5,122.1
						c1.6,19.2,9.2,36.4,23.5,50.2c24.2,23.4,74.4,29.8,107.1,3.1c9.3-7.6,17.7-16.2,25-25.7c0.5,3.7,0.8,6.2,1.1,8.8
						c2.8,23.7,19.8,33.2,40.2,22.4c9.5-5,17.4-12.2,24.2-20.6c1.4-1.8,3-3.5,5.2-6c0.2,2.6,0.3,4.2,0.6,5.7
						c2.9,17.8,11.3,25.6,26.7,24.8c6.8-0.5,13.4-2.8,19-6.7c10.6-6.9,18.7-16.2,26.5-26.7c10.5,25.9,31.5,33.3,56.4,33.4
						c26.1,0.2,42.7-15.6,56.8-36c0.6,5.7,1,10.7,1.7,15.6c1.8,13.2,10.4,21.2,21.7,20.5c5-0.3,8.1-2.4,8.5-8.1
						c0.9-13.3,5.8-26,14.1-36.4c3.3-4.6,8-8.1,13.3-9.9c2.5-0.8,5.2-2.4,7.4-0.3c2.2,2,1.2,4.8,0.6,7.4c-2,7.9-4.4,15.8-4,24.2
						c0.6,15.1,9.8,23.8,24.8,23.1c7.9-0.3,14.7-3.5,21-7.9c14.3-10.1,24.3-23.8,33-38.7C525.2-27.8,525.6-29.7,525.3-31.5z
						 M383.7-41c-0.4,5.6-3.3,9.8-6,14.2c-6.4,10.9-14.6,20.4-26,26.3c-11.3,5.8-23.4,7.1-34.4-0.3c-12.1-8-13.3-21-11.9-34
						c1.7-16,6.3-31.5,13.6-45.9c2.8-5.5,6.4-10.2,11.7-13.4c1.7-1,3.7-2.2,5.6-1c1.6,1,0.3,3,0.2,4.5c-0.9,8.4-1.5,16.8,1.4,25
						c3.3,9.4,11,15.8,19.1,16c7,0.2,11.9-2.9,14.8-10c6.7-16.2,4.8-41.8-16.7-52.8c-1.6-0.8-3.2-1.1-2.1-3.7
						c12.1-29,30.9-51.4,61.4-62.2c0.4,0,0.7,0,1,0.2C396.5-134.6,387.2-88.5,383.7-41z"/>
					<path id="Path_90" class="st0" d="M551.5-87.1c-12.3-0.2-22.5,9.7-22.7,22s9.7,22.5,22,22.7c0.2,0,0.3,0,0.5,0
						c12.3-0.1,22.3-10.1,22.2-22.5C573.4-77,563.6-86.9,551.5-87.1z M551.3-46c-10.3,0.1-18.7-8.2-18.8-18.6
						c-0.1-10.3,8.2-18.7,18.6-18.8c10.3-0.1,18.7,8.2,18.8,18.5C569.9-54.6,561.6-46.2,551.3-46L551.3-46z"/>
					<g id="Group_930" transform="translate(569.28 124.138)">
						<path id="Path_91" class="st0" d="M-9.1-195h3.2v12.5h-2v-10.5c-0.1,0.1-0.2,0.3-0.3,0.5l-2.9,7.1c-0.4,1-0.7,1.9-1,2.9h-1.3
							c-1.3-3.5-2.7-6.9-4.1-10.6c-0.1,0.2-0.1,0.2-0.1,0.3v10.2h-2V-195h3.1c0.1,0.2,0.1,0.2,0.2,0.4c1,2.4,1.9,4.7,2.9,7.1
							c0.2,0.5,0.4,1,0.6,1.5c0.1-0.2,0.2-0.4,0.2-0.6l3.1-7.4C-9.3-194.3-9.2-194.6-9.1-195z"/>
						<path id="Path_92" class="st0" d="M-27-182.5v-10.8h-4v-1.7h10.2v1.7h-4c0,0.2-0.1,0.3-0.1,0.5v10.3H-27z"/>
					</g>
				</g>
				<g id="Group_931" transform="translate(252.289 0)">
					<path id="Path_93" class="st1" d="M6-195c-20.4,0-37,16.6-37,37c0,8.8,3.2,17.4,8.9,24.1c1.6,1.5,4.1,1.4,5.7-0.1
						c2.9-2.6,1.9-4.3,1.1-5.2l0,0c-10.4-11.8-9.3-29.7,2.5-40.1s29.7-9.3,40.1,2.5s9.3,29.7-2.5,40.1c-2.6,2.3-5.6,4.1-8.8,5.3l0,0
						c0,0-3.7,0.9-2.3,5.1c1.2,3.4,3.4,3.4,4.3,3.3c19.3-6.6,29.6-27.7,23-47C35.8-185,21.8-195,6-195z"/>
					<path id="Path_94" class="st1" d="M6-180.5c-12.3,0-22.2,10-22.2,22.2c0,5.2,1.8,10.3,5.2,14.3c0.6,0.6,2.4,1.7,4.9-0.4
						c3.3-2.6,1.4-4.7,1.4-4.7l0,0c-2.2-2.5-3.4-5.8-3.4-9.2c0-7.8,6.3-14.1,14-14.1s14.1,6.3,14.1,14c0,5.7-3.4,10.8-8.7,13
						c-1.8,0.9-2.6,3-2,4.8c1.2,4,3.9,3.2,3.9,3.2l0,0c11.6-4,17.7-16.7,13.7-28.2C23.9-174.5,15.5-180.5,6-180.5L6-180.5z"/>
					<circle id="Ellipse_94" class="st1" cx="6" cy="-158" r="8.2"/>
				</g>
			</g>
			<text transform="matrix(1 0 0 1 79.6182 111.018)" class="st2 st3">GET OUT. GET CONNECTED.</text>
		</g>
	</g>
</g>
</svg>
