<svg xmlns="http://www.w3.org/2000/svg" width="175" height="82.097" viewBox="0 0 175 82.097">
  <g id="Group_759" data-name="Group 759" transform="translate(0 -4.504)">
    <g id="logo" transform="translate(-3.429 4.389)">
      <g id="Layer_1_1_">
        <path id="Path_790" data-name="Path 790" d="M164.5,47.474a1.424,1.424,0,0,0-.965-1.333c-.666-.253-1.08.253-1.379.758-.368.6-.712,1.195-1.057,1.792a18.387,18.387,0,0,1-4.435,5.331,2.754,2.754,0,0,1-3.079.551c-1.034-.551-.919-1.654-.919-2.643a5.4,5.4,0,0,1,.115-.85,63.384,63.384,0,0,0,1.333-7.353c.322-5.009-1.333-8.157-7.514-7.146-2.459.414-4.458,1.792-6.457,3.194-.046-.207-.138-.345-.115-.414,3.24-4.573,6.963-8.456,13.006-8.985,1.907-.161,2.367-.758,2.114-2.688-.506-3.791-3.447-5.4-7.192-3.86a19.565,19.565,0,0,0-7.307,5.814c-2,2.344-3.7,4.917-5.561,7.422.115-.551.23-1.126.345-1.677,2.344-10.455,5.308-20.681,11.053-29.872a2.051,2.051,0,0,0-.529-3.033,6.914,6.914,0,0,0-2.321-1.172c-3.929-1.31-7.721-.368-11.42.873-9.651,3.217-15.327,10.524-19.44,19.325-.574,1.195-1.08,1.586-2.413,1.471A15.8,15.8,0,0,0,98.647,26.54c-6.043,4.894-8.755,11.558-8.985,19.1a10.451,10.451,0,0,1-3.447,7.422c-1.1,1.126-2.39,2.344-4.113,1.563-1.631-.735-1.631-2.436-1.608-3.952.161-7.951,2.688-15.258,6.273-22.243.942-1.838.666-3.079-1.172-4a12.957,12.957,0,0,0-8-.942A3.646,3.646,0,0,0,74.634,25.9a75.132,75.132,0,0,0-5.262,20.336c-.414,3.746-2.666,6.112-5.4,8.134-1.631,1.195-3.148.506-3.814-1.425a13.9,13.9,0,0,1-.483-5.676A91.3,91.3,0,0,1,63.49,28.861c2.367-8.111,4.871-16.223,8.778-23.783.689-1.333.253-2.551-1.218-3.355A12.66,12.66,0,0,0,64.11.437a4.757,4.757,0,0,0-4.619,3.47,172.112,172.112,0,0,0-10.18,38.282c-.23,1.7.069,3.493-.919,5.1a26.581,26.581,0,0,1-5.377,6.388c-4.573,3.837-9.766,5.768-15.694,4.228-6.641-1.723-9.812-6.756-10.777-13.052-1.746-11.26,1.264-21.416,8.088-30.447a16.021,16.021,0,0,1,7.7-5.791c2.941-.988,4.412-.046,4.343,3.056a19.455,19.455,0,0,1-2.321,8.5c-.8,1.586-.6,2.482,1.011,3.24A7.848,7.848,0,0,0,44.05,22.5c3.516-2.8,4.6-6.71,4.067-10.938C47.313,5.308,41.982.8,35.341.23c-8.41-.712-15.189,2.643-20.566,8.732C5.905,19.049,2.528,31.067,3.631,44.326a22.17,22.17,0,0,0,6.8,14.522c7.008,6.779,21.531,8.64,31.021.9A44.557,44.557,0,0,0,48.692,52.3c.138,1.057.23,1.792.322,2.551.8,6.848,5.722,9.605,11.627,6.48a22.933,22.933,0,0,0,7.008-5.951c.414-.529.873-1.011,1.517-1.723.069.758.092,1.218.161,1.654.827,5.147,3.263,7.422,7.721,7.192a11.071,11.071,0,0,0,5.515-1.93,30.642,30.642,0,0,0,7.675-7.721c3.033,7.491,9.122,9.628,16.338,9.674,7.56.046,12.362-4.5,16.453-10.432.184,1.654.3,3.1.483,4.5.529,3.814,3.01,6.135,6.3,5.928a2.259,2.259,0,0,0,2.459-2.344,19.045,19.045,0,0,1,4.09-10.547,8.032,8.032,0,0,1,3.86-2.872c.712-.23,1.494-.689,2.137-.092.643.574.345,1.4.161,2.137a24.084,24.084,0,0,0-1.172,7.008c.184,4.366,2.826,6.894,7.192,6.687a11.338,11.338,0,0,0,6.089-2.3c4.136-2.918,7.031-6.894,9.559-11.214A2.406,2.406,0,0,0,164.5,47.474Zm-41.017-2.757a9.259,9.259,0,0,1-1.723,4.113,19.142,19.142,0,0,1-7.514,7.606c-3.263,1.677-6.779,2.045-9.95-.092-3.493-2.321-3.837-6.089-3.447-9.835a38.048,38.048,0,0,1,3.929-13.282,9.138,9.138,0,0,1,3.4-3.883c.506-.3,1.08-.643,1.631-.276.46.3.092.873.046,1.31a16.062,16.062,0,0,0,.414,7.238c.965,2.711,3.194,4.573,5.538,4.619a4.165,4.165,0,0,0,4.3-2.9c1.93-4.688,1.4-12.11-4.826-15.281-.46-.23-.919-.322-.6-1.08,3.493-8.41,8.939-14.89,17.762-18.015a.679.679,0,0,1,.3.046C127.186,17.625,124.521,30.975,123.487,44.716Z" fill="#fff"/>
        <path id="Path_791" data-name="Path 791" d="M172.064,31.389a6.469,6.469,0,1,0-.069,12.937,6.469,6.469,0,0,0,.069-12.937Zm-.046,11.88a5.412,5.412,0,1,1,5.377-5.469A5.468,5.468,0,0,1,172.018,43.269Z" fill="#fff"/>
        <g id="Group_928" data-name="Group 928">
          <path id="Path_792" data-name="Path 792" d="M174.591,36.076h.919v3.631h-.574V36.674a.481.481,0,0,0-.092.138l-.827,2.068c-.115.276-.207.551-.3.827h-.368c-.391-1.011-.781-2-1.195-3.056-.023.069-.023.069-.023.092v2.964h-.574V36.076h.9c.023.046.023.069.046.115.276.689.551,1.356.827,2.045.046.138.115.276.161.437a.367.367,0,0,0,.069-.184l.9-2.137A.523.523,0,0,0,174.591,36.076Z" fill="#fff"/>
          <path id="Path_793" data-name="Path 793" d="M169.4,39.707V36.582h-1.149v-.506h2.941v.506h-1.172c0,.069-.023.092-.023.138v2.987Z" fill="#fff"/>
        </g>
      </g>
      <g id="Group_929" data-name="Group 929">
        <path id="Path_794" data-name="Path 794" d="M87.181.115a10.707,10.707,0,0,0-8.134,17.671,1.213,1.213,0,0,0,1.654-.023c.85-.758.551-1.241.322-1.494h0a8.223,8.223,0,1,1,9.054,2.252h0a1.027,1.027,0,0,0-.666,1.471c.345.988.988.988,1.241.965A10.71,10.71,0,0,0,87.181.115Z" fill="#fee932"/>
        <path id="Path_795" data-name="Path 795" d="M87.181,4.32a6.438,6.438,0,0,0-6.434,6.434,6.352,6.352,0,0,0,1.517,4.136c.184.184.689.483,1.425-.115.942-.758.414-1.356.414-1.356h0a4.012,4.012,0,0,1-.988-2.666,4.067,4.067,0,1,1,5.63,3.746,1.151,1.151,0,0,0-.574,1.4c.345,1.172,1.126.919,1.126.919h0a6.428,6.428,0,0,0-2.114-12.5Z" fill="#fee932"/>
        <circle id="Ellipse_90" data-name="Ellipse 90" cx="2.367" cy="2.367" r="2.367" transform="translate(84.814 8.456)" fill="#fee932"/>
      </g>
    </g>
    <text id="GET_OUT._GET_CONNECTED." data-name="GET OUT. GET CONNECTED." transform="translate(26.548 84.601)" fill="#fde931" font-size="9" font-family="Muli-Bold, Muli" font-weight="700"><tspan x="0" y="0">GET OUT. GET CONNECTED.</tspan></text>
  </g>
</svg>
