<svg xmlns="http://www.w3.org/2000/svg" width="128.789" height="62.333" viewBox="0 0 128.789 62.333">
  <g id="Group_927" data-name="Group 927" transform="translate(-49 -27.667)">
    <g id="Group_1" data-name="Group 1" transform="translate(52 24)">
      <text id="GET_OUT._GET_CONNECTED." data-name="GET OUT. GET CONNECTED." transform="translate(3.475 64)" fill="#fde931" font-size="8" font-family="Muli-Bold, Muli" font-weight="700"><tspan x="0" y="0">GET OUT. GET CONNECTED.</tspan></text>
    </g>
    <g id="logo" transform="translate(34.078 27.167)">
      <g id="Layer_1_1_" transform="translate(14.922 0.515)">
        <path id="Path_784" data-name="Path 784" d="M133.463,35.427a1.048,1.048,0,0,0-.71-.981c-.49-.186-.795.186-1.015.558-.271.44-.524.879-.778,1.319a13.531,13.531,0,0,1-3.264,3.923,2.027,2.027,0,0,1-2.266.406c-.761-.406-.676-1.218-.676-1.945a3.971,3.971,0,0,1,.085-.626,46.65,46.65,0,0,0,.981-5.411c.237-3.687-.981-6-5.53-5.259a11.836,11.836,0,0,0-4.752,2.351c-.034-.152-.1-.254-.085-.3,2.384-3.365,5.124-6.223,9.572-6.612,1.4-.118,1.742-.558,1.556-1.979-.372-2.79-2.537-3.974-5.293-2.841A14.4,14.4,0,0,0,115.91,22.3c-1.471,1.725-2.723,3.619-4.092,5.462.085-.406.169-.829.254-1.234,1.725-7.694,3.906-15.22,8.134-21.984a1.509,1.509,0,0,0-.389-2.232,5.089,5.089,0,0,0-1.708-.862c-2.892-.964-5.682-.271-8.4.643C102.6,4.463,98.424,9.841,95.4,16.318c-.423.879-.795,1.167-1.776,1.082A11.631,11.631,0,0,0,85,20.021c-4.448,3.6-6.443,8.506-6.612,14.053a7.692,7.692,0,0,1-2.537,5.462c-.812.829-1.759,1.725-3.027,1.15-1.2-.541-1.2-1.793-1.184-2.909a37.324,37.324,0,0,1,4.617-16.37c.693-1.353.49-2.266-.862-2.942a9.535,9.535,0,0,0-5.885-.693,2.683,2.683,0,0,0-2.181,1.776,55.292,55.292,0,0,0-3.873,14.966c-.3,2.756-1.962,4.5-3.974,5.986-1.2.879-2.317.372-2.807-1.048a10.232,10.232,0,0,1-.355-4.177,67.187,67.187,0,0,1,2.807-13.546,96.635,96.635,0,0,1,6.46-17.5,1.716,1.716,0,0,0-.9-2.469A9.317,9.317,0,0,0,59.58.811a3.5,3.5,0,0,0-3.4,2.554,126.664,126.664,0,0,0-7.491,28.173c-.169,1.251.051,2.57-.676,3.754a19.562,19.562,0,0,1-3.957,4.7c-3.365,2.824-7.187,4.245-11.55,3.112-4.887-1.268-7.221-4.972-7.931-9.605-1.285-8.286.93-15.761,5.953-22.407a11.79,11.79,0,0,1,5.665-4.262c2.165-.727,3.247-.034,3.2,2.249a14.318,14.318,0,0,1-1.708,6.257c-.592,1.167-.44,1.826.744,2.384a5.775,5.775,0,0,0,6.392-.676A8.384,8.384,0,0,0,47.81,9c-.592-4.6-4.515-7.914-9.4-8.337C32.218.134,27.229,2.6,23.272,7.084c-6.528,7.424-9.013,16.268-8.2,26.026A16.315,16.315,0,0,0,20.076,43.8c5.158,4.989,15.845,6.358,22.83.66a32.791,32.791,0,0,0,5.327-5.479c.1.778.169,1.319.237,1.877.592,5.039,4.211,7.069,8.557,4.769a16.877,16.877,0,0,0,5.158-4.38c.3-.389.643-.744,1.116-1.268.051.558.068.9.118,1.218.609,3.788,2.4,5.462,5.682,5.293a8.147,8.147,0,0,0,4.059-1.421,22.551,22.551,0,0,0,5.648-5.682C81.039,44.9,85.521,46.47,90.831,46.5c5.564.034,9.1-3.315,12.108-7.678.135,1.218.22,2.283.355,3.315.389,2.807,2.215,4.515,4.634,4.363a1.663,1.663,0,0,0,1.809-1.725,14.016,14.016,0,0,1,3.01-7.762,5.911,5.911,0,0,1,2.841-2.114c.524-.169,1.1-.507,1.573-.068.473.423.254,1.032.118,1.573a17.725,17.725,0,0,0-.862,5.158c.135,3.213,2.08,5.073,5.293,4.921a8.344,8.344,0,0,0,4.481-1.691,25.26,25.26,0,0,0,7.035-8.252A1.771,1.771,0,0,0,133.463,35.427ZM103.277,33.4a6.814,6.814,0,0,1-1.268,3.027,14.088,14.088,0,0,1-5.53,5.6c-2.4,1.234-4.989,1.505-7.322-.068-2.57-1.708-2.824-4.481-2.537-7.238a28,28,0,0,1,2.892-9.774,6.725,6.725,0,0,1,2.5-2.858c.372-.22.795-.474,1.2-.2.338.22.068.643.034.964a11.821,11.821,0,0,0,.3,5.327,4.741,4.741,0,0,0,4.076,3.4,3.065,3.065,0,0,0,3.162-2.131c1.421-3.45,1.032-8.912-3.551-11.246-.338-.169-.676-.237-.44-.795,2.57-6.189,6.578-10.958,13.072-13.258a.5.5,0,0,1,.22.034A88.077,88.077,0,0,0,103.277,33.4Z" transform="translate(-14.922 -0.589)" fill="#fff"/>
        <path id="Path_785" data-name="Path 785" d="M725.12,136.6a4.761,4.761,0,1,0-.051,9.521,4.761,4.761,0,0,0,.051-9.521Zm-.034,8.743a3.983,3.983,0,1,1,3.957-4.025A4.024,4.024,0,0,1,725.086,145.342Z" transform="translate(-601.015 -113.599)" fill="#fff"/>
        <g id="Group_925" data-name="Group 925" transform="translate(121.298 26.45)">
          <path id="Path_786" data-name="Path 786" d="M748.832,157h.676v2.672h-.423V157.44a.355.355,0,0,0-.068.1l-.609,1.522c-.085.2-.152.406-.22.609h-.271c-.287-.744-.575-1.471-.879-2.249-.017.051-.017.051-.017.068v2.182H746.6V157h.659c.017.034.017.051.034.085.2.507.406,1,.609,1.505.034.1.085.2.118.321a.27.27,0,0,0,.051-.135l.66-1.573A.385.385,0,0,0,748.832,157Z" transform="translate(-744.165 -157)" fill="#fff"/>
          <path id="Path_787" data-name="Path 787" d="M733.046,159.672v-2.3H732.2V157h2.165v.372H733.5c0,.051-.017.068-.017.1v2.2Z" transform="translate(-732.2 -157)" fill="#fff"/>
        </g>
      </g>
      <g id="Group_926" data-name="Group 926" transform="translate(68.678 0.5)">
        <path id="Path_788" data-name="Path 788" d="M340.68.5a7.88,7.88,0,0,0-5.986,13,.893.893,0,0,0,1.218-.017c.626-.558.406-.913.237-1.1h0a6.052,6.052,0,1,1,6.663,1.657h0a.756.756,0,0,0-.49,1.082c.254.727.727.727.913.71A7.882,7.882,0,0,0,340.68.5Z" transform="translate(-332.8 -0.5)" fill="#fee932"/>
        <path id="Path_789" data-name="Path 789" d="M356.135,18.8a4.738,4.738,0,0,0-4.735,4.735,4.675,4.675,0,0,0,1.116,3.044c.135.135.507.355,1.048-.085.693-.558.3-1,.3-1h0a2.953,2.953,0,0,1-.727-1.962,2.993,2.993,0,1,1,4.143,2.756.847.847,0,0,0-.423,1.032c.254.862.829.676.829.676h0a4.731,4.731,0,0,0-1.556-9.2Z" transform="translate(-348.255 -15.705)" fill="#fee932"/>
        <circle id="Ellipse_89" data-name="Ellipse 89" cx="1.742" cy="1.742" r="1.742" transform="translate(6.139 6.139)" fill="#fee932"/>
      </g>
    </g>
  </g>
</svg>
