<?xml version="1.0" encoding="utf-8"?>
<!-- Generator: Adobe Illustrator 20.1.0, SVG Export Plug-In . SVG Version: 6.00 Build 0)  -->
<svg version="1.1" id="Layer_1" xmlns="http://www.w3.org/2000/svg" xmlns:xlink="http://www.w3.org/1999/xlink" x="0px" y="0px"
	 viewBox="0 0 26 26" style="enable-background:new 0 0 26 26;" xml:space="preserve">
<style type="text/css">
	.st0{fill-rule:evenodd;clip-rule:evenodd;fill:#FFFFFF;}
</style>
<path id="XMLID_20_" class="st0" d="M18.6,11.5l-5.4,5.3c-0.1,0.1-0.2,0.1-0.2,0l-5.4-5.3c-0.1-0.1-0.1-0.2,0-0.2l1.2-1.2l4.2,4.1
	c0.1,0.1,0.2,0.1,0.2,0l4.1-4.1l1.2,1.2C18.6,11.3,18.6,11.5,18.6,11.5L18.6,11.5z M26,13c0,3.6-1.4,6.9-3.8,9.2
	C19.9,24.6,16.6,26,13,26c-3.6,0-6.9-1.4-9.2-3.8C1.5,19.9,0,16.6,0,13c0-3.6,1.5-6.9,3.8-9.2C6.2,1.5,9.4,0,13,0
	c3.6,0,6.9,1.5,9.2,3.8C24.6,6.2,26,9.4,26,13L26,13z M20.3,20.3c1.9-1.9,3-4.4,3-7.2s-1.2-5.4-3-7.2c-1.9-1.8-4.4-3-7.3-3
	c-2.8,0-5.4,1.2-7.2,3c-1.8,1.9-3,4.4-3,7.2s1.2,5.4,3,7.2c1.9,1.9,4.4,3,7.2,3C15.9,23.2,18.4,22.1,20.3,20.3L20.3,20.3z"/>
</svg>
