<?xml version="1.0" encoding="utf-8"?>
<!-- Generator: Adobe Illustrator 20.1.0, SVG Export Plug-In . SVG Version: 6.00 Build 0)  -->
<svg version="1.1" id="Layer_1" xmlns="http://www.w3.org/2000/svg" xmlns:xlink="http://www.w3.org/1999/xlink" x="0px" y="0px"
	 viewBox="0 0 64.7 75.3" style="enable-background:new 0 0 64.7 75.3;" xml:space="preserve">
<style type="text/css">
	.st0{fill-rule:evenodd;clip-rule:evenodd;fill:#FFFFFF;}
</style>
<path id="XMLID_14_" class="st0" d="M64.7,55.2c-1.8,3.9-2.6,5.7-4.9,9.1c-3.2,4.8-7.7,10.9-13.2,10.9c-4.9,0-6.2-3.2-12.9-3.2
	c-6.7,0-8.1,3.2-13,3.2c-5.5-0.1-9.8-5.5-13-10.3c-8.9-13.5-9.8-29.4-4.3-37.8c3.9-6,10-9.5,15.8-9.5c5.9,0,9.6,3.2,14.4,3.2
	c4.7,0,7.6-3.2,14.4-3.2c5.1,0,10.6,2.8,14.5,7.6C49.8,32.2,51.8,50.4,64.7,55.2L64.7,55.2z M42.9,12.2c2.5-3.2,4.3-7.7,3.7-12.2
	c-4,0.3-8.8,2.8-11.5,6.2c-2.5,3-4.6,7.5-3.8,11.9C35.7,18.3,40.2,15.6,42.9,12.2L42.9,12.2z"/>
</svg>
