<?xml version="1.0" encoding="utf-8"?>
<!-- Generator: Adobe Illustrator 20.1.0, SVG Export Plug-In . SVG Version: 6.00 Build 0)  -->
<svg version="1.1" id="Layer_1" xmlns="http://www.w3.org/2000/svg" xmlns:xlink="http://www.w3.org/1999/xlink" x="0px" y="0px"
	 viewBox="0 0 65.5 76.9" style="enable-background:new 0 0 65.5 76.9;" xml:space="preserve">
<style type="text/css">
	.st0{fill:#FFFFFF;}
</style>
<g id="XMLID_6_">
	<path id="XMLID_10_" class="st0" d="M43,6.4l0.8-1.3l0.8-1.2l1.9-2.8c0.2-0.3,0.1-0.8-0.2-1c-0.3-0.2-0.8-0.1-1,0.2l-2,3l-0.8,1.3
		l-0.8,1.3c-2.7-1-5.7-1.6-8.9-1.6c-3.2,0-6.2,0.6-8.9,1.6L23,4.6l-0.8-1.3l-2-3c-0.2-0.3-0.7-0.4-1-0.2c-0.3,0.2-0.4,0.7-0.2,1
		l1.9,2.8l0.8,1.2l0.8,1.3C16.2,9.4,11.9,15,11.9,21.3h41.7C53.6,15,49.3,9.4,43,6.4z M23.8,15.4c-1.2,0-2.2-1-2.2-2.2
		c0-1.2,1-2.2,2.2-2.2c1.2,0,2.2,1,2.2,2.2C26,14.4,25.1,15.4,23.8,15.4z M41.7,15.4c-1.2,0-2.2-1-2.2-2.2c0-1.2,1-2.2,2.2-2.2
		c1.2,0,2.2,1,2.2,2.2C43.9,14.4,42.9,15.4,41.7,15.4z"/>
	<path id="XMLID_9_" class="st0" d="M12.2,24.3h-0.3V28v3v26c0,2.6,2.1,4.7,4.7,4.7H20c-0.1,0.4-0.2,0.8-0.2,1.2v0.2v1.5v7.7
		c0,2.5,2,4.5,4.5,4.5s4.5-2,4.5-4.5v-7.7v-1.5V63c0-0.4-0.1-0.8-0.2-1.2h8.3c-0.1,0.4-0.2,0.8-0.2,1.2v0.2v1.5v7.7
		c0,2.5,2,4.5,4.5,4.5c2.5,0,4.5-2,4.5-4.5v-7.7v-1.5V63c0-0.4-0.1-0.8-0.2-1.2h3.4c2.6,0,4.7-2.1,4.7-4.7v-26v-3v-3.7h-0.3H12.2z"
		/>
	<path id="XMLID_8_" class="st0" d="M4.5,24.3c-2.5,0-4.5,2-4.5,4.5v19.1c0,2.5,2,4.5,4.5,4.5c2.5,0,4.5-2,4.5-4.5V28.8
		C8.9,26.3,6.9,24.3,4.5,24.3z"/>
	<path id="XMLID_7_" class="st0" d="M61,24.3c-2.5,0-4.5,2-4.5,4.5v19.1c0,2.5,2,4.5,4.5,4.5c2.5,0,4.5-2,4.5-4.5V28.8
		C65.5,26.3,63.5,24.3,61,24.3z"/>
</g>
</svg>
