<?xml version="1.0" encoding="utf-8"?>
<!-- Generator: Adobe Illustrator 20.1.0, SVG Export Plug-In . SVG Version: 6.00 Build 0)  -->
<svg version="1.1" id="Layer_1" xmlns="http://www.w3.org/2000/svg" xmlns:xlink="http://www.w3.org/1999/xlink" x="0px" y="0px"
	 viewBox="0 0 33.6 33.7" style="enable-background:new 0 0 33.6 33.7;" xml:space="preserve">
<style type="text/css">
	.st0{fill:#FFFFFF;}
</style>
<polygon id="XMLID_34_" class="st0" points="7.4,33.7 0.7,33.7 0.7,10.2 7.4,10.2 7.4,33.7 "/>
<path id="XMLID_33_" class="st0" d="M4.1,7.6C1.8,7.6,0,5.9,0,3.8S1.8,0,4.1,0c2.3,0,4.1,1.7,4.1,3.8S6.3,7.6,4.1,7.6L4.1,7.6z"/>
<path id="XMLID_32_" class="st0" d="M33.5,33.7h-6.9V19.8c0,0,0.1-2.2-1.1-3.5c-0.6-0.7-1.5-1-2.5-1c-2.7,0-4,1.9-4.6,3.1v15.3h-6.7
	V10.2h6.7v2c2.2-1.8,4.7-2.7,7.1-2.7c6.4,0,8,5,8,7.6V33.7z"/>
<path id="XMLID_31_" class="st0" d="M33.5,33.7"/>
</svg>
