<?xml version="1.0" encoding="utf-8"?>
<!-- Generator: Adobe Illustrator 20.0.0, SVG Export Plug-In . SVG Version: 6.00 Build 0)  -->
<svg version="1.1" id="Layer_1" xmlns="http://www.w3.org/2000/svg" xmlns:xlink="http://www.w3.org/1999/xlink" x="0px" y="0px"
	 viewBox="0 0 85.9 85.9" style="enable-background:new 0 0 85.9 85.9;" xml:space="preserve">
<style type="text/css">
	.st0{fill:#FFFFFF;}
</style>
<path id="XMLID_24_" class="st0" d="M66.9,19C60.7,13.1,52.2,9.2,43,9.2S25.2,13.1,19,19c-6.1,6.2-9.7,14.7-9.7,24
	s3.6,17.7,9.8,23.9s14.7,10,23.9,10s17.7-3.9,23.9-10c6.2-6.2,9.8-14.7,9.8-23.9S73,25.2,66.9,19L66.9,19z M56.6,41.2
	c1.8,1,1.8,2.8,0,3.9L35.5,56.3V29.6L56.6,41.2z M42.9,0c11.8,0,22.6,4.9,30.3,12.6C81,20.3,85.9,31.1,85.9,43S81,65.6,73.3,73.3
	c-7.7,8-18.5,12.6-30.3,12.6s-22.6-4.6-30.3-12.6C4.9,65.6,0,54.8,0,43s4.9-22.6,12.6-30.3C20.3,4.9,31.1,0,42.9,0L42.9,0z"/>
</svg>
