<?xml version="1.0" encoding="utf-8"?>
<!-- Generator: Adobe Illustrator 20.1.0, SVG Export Plug-In . SVG Version: 6.00 Build 0)  -->
<svg version="1.1" id="Layer_1" xmlns="http://www.w3.org/2000/svg" xmlns:xlink="http://www.w3.org/1999/xlink" x="0px" y="0px"
	 viewBox="0 0 33.6 33.6" style="enable-background:new 0 0 33.6 33.6;" xml:space="preserve">
<style type="text/css">
	.st0{fill:#FFFFFF;}
</style>
<g>
	<path class="st0" d="M9.9,9.9c-1.2,1.2-2,2.6-2.5,4.1H0V4.2C0,3,0.4,2,1.2,1.2C2.1,0.4,3.2,0,4.3,0h25.2c1.1,0,2.1,0.4,2.9,1.2
		c0.8,0.8,1.2,1.8,1.2,3V14h-7.4c-0.4-1.5-1.2-2.9-2.5-4.1C21.9,8,19.5,7,16.8,7C14.1,7,11.8,8,9.9,9.9z M23.8,23.7
		c1.9-1.9,2.8-4.2,2.8-6.9h7v12.6c0,1.1-0.4,2-1.2,3c-0.8,0.8-1.7,1.2-2.9,1.2H4.3c-1.2,0-2.2-0.4-3-1.2c-0.9-0.9-1.3-1.9-1.3-3
		V16.8h7.1c0,2.7,0.9,5,2.8,6.9c1.9,1.9,4.2,2.9,6.9,2.9C19.5,26.6,21.9,25.6,23.8,23.7z M16.8,23.8c-4.7,0-7-2.3-7-7s2.3-7,7-7
		s7,2.3,7,7S21.5,23.8,16.8,23.8z M30.8,7.3V3.9l-0.4-0.8l-0.8-0.4h-3.3l-0.8,0.4l-0.4,0.8v3.4l0.4,0.8c0.2,0.2,0.4,0.3,0.8,0.3h3.3
		c0.4,0,0.6-0.1,0.8-0.3L30.8,7.3z"/>
</g>
</svg>
