<?xml version="1.0" encoding="utf-8"?>
<!-- Generator: Adobe Illustrator 20.1.0, SVG Export Plug-In . SVG Version: 6.00 Build 0)  -->
<svg version="1.1" id="Layer_1" xmlns="http://www.w3.org/2000/svg" xmlns:xlink="http://www.w3.org/1999/xlink" x="0px" y="0px"
	 viewBox="0 0 35.2 34.2" style="enable-background:new 0 0 35.2 34.2;" xml:space="preserve">
<style type="text/css">
	.st0{fill:#FFFFFF;}
</style>
<path id="XMLID_2_" class="st0" d="M35,16.7c0.6-0.7,0.6-1.8-0.1-2.4L19,0.5c-0.7-0.6-1.9-0.6-2.6,0L0.6,15
	c-0.7,0.6-0.7,1.7-0.1,2.4l0.4,0.4c0.7,0.7,1.7,0.8,2.4,0.2L4.4,17v15.6c0,1,0.8,1.7,1.7,1.7h6.2c1,0,1.7-0.8,1.7-1.7V21.7H22v10.9
	c0,1,0.7,1.7,1.6,1.7h6.6c1,0,1.7-0.8,1.7-1.7V17.2c0,0,0.3,0.3,0.7,0.6c0.4,0.4,1.3,0.1,1.9-0.6L35,16.7z"/>
</svg>
