<?xml version="1.0" encoding="utf-8"?>
<!-- Generator: Adobe Illustrator 20.1.0, SVG Export Plug-In . SVG Version: 6.00 Build 0)  -->
<svg version="1.1" id="Layer_1" xmlns="http://www.w3.org/2000/svg" xmlns:xlink="http://www.w3.org/1999/xlink" x="0px" y="0px"
	 viewBox="0 0 33.5 27.5" style="enable-background:new 0 0 33.5 27.5;" xml:space="preserve">
<style type="text/css">
	.st0{fill:#FFFFFF;}
</style>
<path id="XMLID_5_" class="st0" d="M32,5.5C31,6.4,30,7.1,30,7.1s0.9,3.6-1.5,9.2C26,21.8,20.8,26.1,15.3,27
	c-5.5,0.9-8.4,0.4-10.7-0.3C2.4,26.1,0,24.4,0,24.4s3.9,0.1,6.3-0.7c2.4-0.8,3.8-2,3.8-2s-2.6-0.2-4.6-2c-2-1.8-2.1-3.1-2.1-3.1
	s1.1,0.2,2.1,0.2c1,0,1.2-0.1,1.2-0.1s-2.9-0.8-4.5-3.4C0.6,10.6,1,9.6,1,9.6s0.6,0.5,1.7,0.8c1.1,0.3,1.7,0.1,1.7,0.1
	S1.6,9.1,1.4,5.9C1.2,2.8,2.2,1.3,2.2,1.3s1.9,3.4,6.6,5.3c4.7,1.9,7.6,1.8,7.6,1.8S15,3.1,20.6,0.7c5.6-2.3,8,1.8,8,1.8
	s1.8-0.5,2.6-0.9c0.8-0.4,1.3-1,1.3-1s-0.3,1.2-1,2.1c-0.7,1-1.8,1.9-1.8,1.9s1.1-0.3,2.1-0.6c1-0.3,1.6-0.6,1.6-0.6S33,4.7,32,5.5
	L32,5.5z"/>
</svg>
