<?xml version="1.0" encoding="utf-8"?>
<!-- Generator: Adobe Illustrator 20.0.0, SVG Export Plug-In . SVG Version: 6.00 Build 0)  -->
<svg version="1.1" id="Layer_1" xmlns="http://www.w3.org/2000/svg" xmlns:xlink="http://www.w3.org/1999/xlink" x="0px" y="0px"
	 viewBox="0 0 792 282" style="enable-background:new 0 0 792 282;" xml:space="preserve">
<style type="text/css">
	.st0{fill:#FFFFFF;}
	.st1{fill:#FEE932;}
</style>
<g id="Layer_1_1_">
	<path class="st0" d="M715.9,206.6c-0.1-2.9-1.8-4.9-4.2-5.8c-2.9-1.1-4.7,1.1-6,3.3c-1.6,2.6-3.1,5.2-4.6,7.8
		c-5.3,8.7-11.1,17-19.3,23.2c-4,3-8.6,5-13.4,2.4c-4.5-2.4-4-7.2-4-11.5c0-1.2,0.3-2.5,0.5-3.7c2-10.7,5.1-21.3,5.8-32
		c1.4-21.8-5.8-35.5-32.7-31.1c-10.7,1.8-19.4,7.8-28.1,13.9c-0.2-0.9-0.6-1.5-0.5-1.8c14.1-19.9,30.3-36.8,56.6-39.1
		c8.3-0.7,10.3-3.3,9.2-11.7c-2.2-16.5-15-23.5-31.3-16.8c-13,5.3-22.8,14.8-31.8,25.3c-8.7,10.2-16.1,21.4-24.2,32.3
		c0.5-2.4,1-4.9,1.5-7.3c10.2-45.5,23.1-90,48.1-130c3.4-5.4,2.2-9.5-2.3-13.2c-3-2.5-6.5-3.9-10.1-5.1C608,0,591.5,4.1,575.4,9.5
		c-42,14-66.7,45.8-84.6,84.1c-2.5,5.2-4.7,6.9-10.5,6.4c-19-1.8-36.2,3.6-51,15.5c-26.3,21.3-38.1,50.3-39.1,83.1
		c-0.4,14-6.3,23.4-15,32.3c-4.8,4.9-10.4,10.2-17.9,6.8c-7.1-3.2-7.1-10.6-7-17.2c0.7-34.6,11.7-66.4,27.3-96.8
		c4.1-8,2.9-13.4-5.1-17.4c-11.1-5.5-22.9-6-34.8-4.1c-6.2,1-10.5,4.5-12.9,10.5c-11.8,28.4-19.4,58-22.9,88.5
		c-1.8,16.3-11.6,26.6-23.5,35.4c-7.1,5.2-13.7,2.2-16.6-6.2c-2.7-8-2.8-16.3-2.1-24.7c2.2-27.4,8.9-53.9,16.6-80.1
		c10.3-35.3,21.2-70.6,38.2-103.5c3-5.8,1.1-11.1-5.3-14.6c-9.4-5.1-19.6-6.2-30.2-5.6c-10.2,0.6-16.4,5.2-20.1,15.1
		c-20.5,54-36.6,109.1-44.3,166.6c-1,7.4,0.3,15.2-4,22.2c-6.5,10.4-14,19.9-23.4,27.8c-19.9,16.7-42.5,25.1-68.3,18.4
		C90,244.5,76.2,222.6,72,195.2c-7.6-49,5.5-93.2,35.2-132.5c8.6-11.4,19.5-20.5,33.5-25.2c12.8-4.3,19.2-0.2,18.9,13.3
		c-0.2,13.1-4.2,25.3-10.1,37c-3.5,6.9-2.6,10.8,4.4,14.1c13.3,6.1,26.3,5.2,37.8-4c15.3-12.2,20-29.2,17.7-47.6
		C205.9,23.1,182.7,3.5,153.8,1c-36.6-3.1-66.1,11.5-89.5,38C25.7,82.9,11,135.2,15.8,192.9c2,24.2,11.6,45.9,29.6,63.2
		c30.5,29.5,93.7,37.6,135,3.9c11.5-9.4,21.8-19.8,31.5-32.4c0.6,4.6,1,7.8,1.4,11.1c3.5,29.8,24.9,41.8,50.6,28.2
		c12-6.3,21.9-15.4,30.5-25.9c1.8-2.3,3.8-4.4,6.6-7.5c0.3,3.3,0.4,5.3,0.7,7.2c3.6,22.4,14.2,32.3,33.6,31.3
		c8.8-0.5,16.7-3.6,24-8.4c13.3-8.7,23.6-20.4,33.4-33.6c13.2,32.6,39.7,41.9,71.1,42.1c32.9,0.2,53.8-19.6,71.6-45.4
		c0.8,7.2,1.3,13.5,2.1,19.6c2.3,16.6,13.1,26.7,27.4,25.8c6.3-0.4,10.2-3,10.7-10.2c1.2-17.1,7.3-32.4,17.8-45.9
		c4.4-5.7,9.8-10.2,16.8-12.5c3.1-1,6.5-3,9.3-0.4c2.8,2.5,1.5,6.1,0.7,9.3c-2.5,10-5.6,19.9-5.1,30.5c0.8,19,12.3,30,31.3,29.1
		c9.9-0.4,18.5-4.4,26.5-10c18-12.7,30.6-30,41.6-48.8C715.9,211,716,208.9,715.9,206.6z M537.4,194.6c-0.5,7.1-4.2,12.3-7.5,17.9
		c-8.1,13.7-18.4,25.7-32.7,33.1c-14.2,7.3-29.5,8.9-43.3-0.4c-15.2-10.1-16.7-26.5-15-42.8c2.1-20.2,7.9-39.6,17.1-57.8
		c3.5-6.9,8.1-12.9,14.8-16.9c2.2-1.3,4.7-2.8,7.1-1.2c2,1.3,0.4,3.8,0.2,5.7c-1.1,10.6-1.9,21.2,1.8,31.5
		c4.2,11.8,13.9,19.9,24.1,20.1c8.8,0.2,15-3.6,18.7-12.6c8.4-20.4,6.1-52.7-21-66.5c-2-1-4-1.4-2.6-4.7
		c15.2-36.6,38.9-64.8,77.3-78.4c0.4-0.1,0.9,0.1,1.3,0.2C553.5,76.7,541.9,134.8,537.4,194.6z"/>
	<path class="st0" d="M748.8,136.6c-15.9-0.1-28.5,12.2-28.5,28.1s12.3,28.2,28.2,28.2c16,0,28.1-12.3,28-28.3
		C776.6,148.9,764.4,136.7,748.8,136.6z M748.6,188.3c-13,0-23.7-10.7-23.7-23.6c0.1-12.9,10.9-23.6,23.9-23.5
		c12.6,0.2,23.1,10.6,23.2,23.3C772.2,177.4,761.6,188.2,748.6,188.3z"/>
	<g>
		<path class="st0" d="M759.8,157c1.3,0,2.7,0,4,0c0,5.3,0,10.5,0,15.8c-0.8,0-1.7,0-2.5,0c0-4.4,0-8.8,0-13.2
			c-0.2,0.2-0.3,0.4-0.4,0.6c-1.2,3-2.4,6-3.6,9c-0.5,1.2-0.9,2.4-1.3,3.6c-0.5,0-1,0-1.6,0c-1.7-4.4-3.4-8.7-5.2-13.3
			c-0.1,0.3-0.1,0.3-0.1,0.4c0,4.2,0,8.5,0,12.7c0,0.1,0,0.1,0,0.2c-0.8,0-1.7,0-2.5,0c0-5.3,0-10.5,0-15.8c1.3,0,2.6,0,3.9,0
			c0.1,0.2,0.1,0.3,0.2,0.5c1.2,3,2.4,5.9,3.6,8.9c0.2,0.6,0.5,1.2,0.7,1.9c0.2-0.3,0.3-0.6,0.3-0.8c1.3-3.1,2.6-6.2,3.9-9.3
			C759.6,157.8,759.7,157.4,759.8,157z"/>
		<path class="st0" d="M737.2,172.8c0-4.5,0-8.9,0-13.6c-1.7,0-3.3,0-5,0c0-0.7,0-1.5,0-2.2c4.3,0,8.5,0,12.8,0c0,0.7,0,1.4,0,2.2
			c-1.7,0-3.4,0-5.1,0c0,0.3-0.1,0.4-0.1,0.6c0,4.2,0,8.4,0,12.6c0,0.1,0,0.3,0,0.4C739,172.8,738.1,172.8,737.2,172.8z"/>
	</g>
</g>
<g>
	<path class="st1" d="M379.4,0.5c-25.7,0-46.6,20.8-46.6,46.6c0,11.6,4.2,22.2,11.2,30.3c0.9,0.7,3.9,2.8,7.2-0.1
		c3.7-3.3,2.4-5.4,1.4-6.5c0-0.1,0,0.1,0,0c-5.6-6.3-9-14.6-9-23.7c0-19.8,16-35.8,35.8-35.8s35.8,16,35.8,35.8
		c0,15.4-9.6,28.5-23.2,33.5l0,0c0,0-4.7,1.1-2.9,6.4c1.5,4.3,4.3,4.3,5.4,4.2c18.3-6.3,31.5-23.7,31.5-44.1
		C426,21.4,405.2,0.5,379.4,0.5z"/>
	<path class="st1" d="M379.4,18.8c-15.4,0-28,12.5-28,28c0,6.9,2.5,13.2,6.6,18c0.8,0.8,3,2.1,6.2-0.5c4.1-3.3,1.8-5.9,1.8-5.9l0,0
		c-2.7-3.1-4.3-7.1-4.3-11.6c0-9.8,7.9-17.7,17.7-17.7c9.8,0,17.7,7.9,17.7,17.7c0,7.4-4.5,13.7-10.9,16.3c-0.9,0.5-3.6,2.3-2.5,6.1
		c1.5,5.1,4.9,4,4.9,4l0,0c10.9-3.8,18.8-14.2,18.8-26.4C407.4,31.4,394.8,18.8,379.4,18.8z"/>
	<circle class="st1" cx="379.4" cy="47.1" r="10.3"/>
</g>
</svg>
