<?xml version="1.0" encoding="utf-8"?>
<!-- Generator: Adobe Illustrator 20.0.0, SVG Export Plug-In . SVG Version: 6.00 Build 0)  -->
<svg version="1.1" id="Layer_1" xmlns="http://www.w3.org/2000/svg" xmlns:xlink="http://www.w3.org/1999/xlink" x="0px" y="0px"
	 viewBox="0 0 599.2 655.1" style="enable-background:new 0 0 599.2 655.1;" xml:space="preserve">
<style type="text/css">
	.st0{fill:#FFFFFF;}
	.st1{display:none;}
	.st2{display:inline;fill:#E2DEBA;}
	.st3{display:inline;fill:#7A786A;}
	.st4{fill:#FEE932;}
</style>
<path class="st0" d="M240.7,654c6.9,0,19.7-0.3,24.5-0.6c7.4-0.7,12.6-0.9,19.3-2.3c60.1-12.6,107-46.6,148-90.2
	c18.2-19.3,33.2-41.2,46.9-63.9c6.5-10.9,6.4-22.3-5.7-29c-12-6.7-14.7,5.8-19,12.4c-16,24.2-34,46.5-56.8,64.7
	c-48.4,38.6-102.2,56.4-162.9,37c-64.2-20.6-92.5-72.2-101.7-134c-15.3-103.4,11.6-198,68.9-284.3c23.5-35.3,52.6-64.7,94.7-77.9
	c27.4-8.6,40.8,0.4,41,29.2c0.2,31.2-9.2,60.1-23.1,87.7c-8.6,17.1-5.8,27.4,12.3,34.7c29.1,11.7,57.9,10.6,83.4-9
	c39.7-30.6,50.2-73.4,42-119.9C441.7,48,389.4,7.5,320.4,1.2c-7.6-0.8-11-0.9-16.2-0.9c-4.4,0-14.1,0.1-19.5,0.7
	C199,9.7,137,56.8,88.5,124c-55,76.2-80.3,163.1-87.1,256c-0.4,4.7-0.7,9.9-0.8,21.6c0,11.7,0.2,12.7,0.8,21
	C6.8,507.5,36,579.2,113.4,624c31,18,65,26.2,100.5,28.9C213.9,652.9,231.6,654,240.7,654z"/>
<g>
	<g id="Layer_2" class="st1">
		<circle class="st2" cx="488.4" cy="416" r="108.1"/>
	</g>
	<g id="Layer_3" class="st1">
		<circle class="st3" cx="488.4" cy="416" r="83.1"/>
	</g>
	<path class="st4" d="M487.9,309c-59.6,0-108.1,48.3-108.1,108.1c0,26.8,9.8,51.3,26,70.2c2,2.4,9.2,6.6,16.7-0.2
		c8.6-7.7,5.8-12.1,3.5-14.6c-0.1-0.1-0.1-0.2-0.2-0.2c-13-14.6-21-33.9-21-55.2c0-46,37.1-83.1,83.1-83.1s83.1,37.2,83.1,83.1
		c0,35.6-22.3,66-53.8,77.8l0,0c0,0-10.9,2.4-6.7,14.7c3.5,10.2,9.9,10.4,12.8,9.7c42.3-14.7,72.7-54.9,72.7-102.2
		C596,357.5,547.8,309,487.9,309z"/>
	<path class="st4" d="M487.9,351.5c-35.7,0-65,29-65,65c0,15.4,5.4,29.6,14.5,40.8l0,0c0,0,5.8,8,15.5-0.1
		c8.3-6.8,5.2-12.2,4.3-13.4c-6.5-7.3-10.4-16.8-10.4-27.4c0-22.7,18.3-41.1,41.1-41.1c22.7,0,41.1,18.3,41.1,41.1
		c0,17.1-10.3,31.7-25.2,37.9c-1.9,1-8.6,5.2-5.9,14.1c3.5,11.9,11.4,9.5,11.4,9.5l0,0c25.3-8.8,43.6-32.9,43.6-61.4
		C552.9,380.7,523.7,351.5,487.9,351.5z"/>
	<circle class="st4" cx="487.9" cy="417.1" r="23.9"/>
</g>
<g>
	<path class="st0" d="M531.3,614.5c0,22.3-17.1,40.2-39,40.2c-22,0-39.4-17.9-39.4-40.2c0-22,17.4-39.9,39.4-39.9
		C514.2,574.5,531.3,592.4,531.3,614.5z M459.3,614.8c0,19.3,14.3,34.5,32.9,34.5c18.3,0,32.5-15.2,32.5-34.9
		c0-19.3-14.3-34.6-32.5-34.6C473.6,579.8,459.3,595.1,459.3,614.8z M508.1,599.7c-1.7-0.9-6.5-3-12.6-3c-12.2,0-18.2,7.8-18.2,18.2
		c0,10.1,6.4,18.3,18.3,18.3c5.2,0,10.1-1.4,13.1-3.4l1.6,4.9c-4.5,3-10.5,4-15.9,4c-15,0-23.7-10.4-23.7-23.5
		c0-14.8,11.7-24.1,24.8-24.1c6.7,0,12.6,1.9,14.3,3.5L508.1,599.7z"/>
</g>
</svg>
